<svg width="32" height="32" viewBox="0 0 32 32" fill="none" xmlns="http://www.w3.org/2000/svg">
<g clip-path="url(#clip0_23_35)">
<path d="M27.3125 0H4.6875C2.10278 0 0 2.10278 0 4.6875V27.3125C0 29.8972 2.10278 32 4.6875 32H27.3125C29.8972 32 32 29.8972 32 27.3125V4.6875C32 2.10278 29.8972 0 27.3125 0ZM30.125 27.3125C30.125 28.8633 28.8633 30.125 27.3125 30.125H4.6875C3.13672 30.125 1.875 28.8633 1.875 27.3125V4.6875C1.875 3.13672 3.13672 1.875 4.6875 1.875H27.3125C28.8633 1.875 30.125 3.13672 30.125 4.6875V27.3125Z" fill="white"/>
<path d="M15.0625 13.1875C15.0625 11.1196 13.3804 9.4375 11.3125 9.4375H5.6875V22.5625H11.3125C13.3804 22.5625 15.0625 20.8804 15.0625 18.8125C15.0625 17.6934 14.5691 16.6877 13.7888 16C14.5691 15.3123 15.0625 14.3066 15.0625 13.1875ZM13.1875 18.8125C13.1875 19.8464 12.3464 20.6875 11.3125 20.6875H7.5625V16.9375H11.3125C12.3464 16.9375 13.1875 17.7786 13.1875 18.8125ZM7.5625 15.0625V11.3125H11.3125C12.3464 11.3125 13.1875 12.1536 13.1875 13.1875C13.1875 14.2214 12.3464 15.0625 11.3125 15.0625H7.5625Z" fill="white"/>
<path d="M21.625 13.1875C19.0403 13.1875 16.9375 15.2903 16.9375 17.875C16.9375 20.4597 19.0403 22.5625 21.625 22.5625C23.2932 22.5625 24.8489 21.6648 25.6848 20.2195L24.0618 19.2805C23.5598 20.1484 22.626 20.6875 21.625 20.6875C20.4026 20.6875 19.3601 19.9038 18.9731 18.8125H26.3125V17.875C26.3125 15.2903 24.2097 13.1875 21.625 13.1875ZM18.9731 16.9375C19.3601 15.8462 20.4026 15.0625 21.625 15.0625C22.8474 15.0625 23.8899 15.8462 24.2769 16.9375H18.9731Z" fill="white"/>
<path d="M17.875 9.4375H25.375V11.3125H17.875V9.4375Z" fill="white"/>
</g>
<defs>
<clipPath id="clip0_23_35">
<rect width="32" height="32" fill="white"/>
</clipPath>
</defs>
</svg>
