<svg width="480" height="200" viewBox="0 0 480 200" fill="none" xmlns="http://www.w3.org/2000/svg">
<mask id="path-1-inside-1_33_108" fill="white">
<path d="M0 8C0 3.58173 3.58172 0 8 0H480V200H7.99999C3.58171 200 0 196.418 0 192V8Z"/>
</mask>
<path d="M-1 8C-1 3.02944 3.02944 -1 8 -1H480V1H8C4.13401 1 1 4.13401 1 8H-1ZM480 201H8C3.02944 201 -1 196.971 -1 192H1C1 195.866 4.13401 199 8 199H480V201ZM8 201C3.02944 201 -1 196.971 -1 192V8C-1 3.02944 3.02944 -1 8 -1V1C4.13401 1 1 4.13401 1 8V192C1 195.866 4.13401 199 8 199V201ZM480 0V200V0Z" fill="url(#paint0_linear_33_108)" mask="url(#path-1-inside-1_33_108)"/>
<defs>
<linearGradient id="paint0_linear_33_108" x1="240" y1="0" x2="240" y2="200" gradientUnits="userSpaceOnUse">
<stop stop-color="#FFF422" stop-opacity="0.4"/>
<stop offset="1" stop-color="#AF99FF" stop-opacity="0.4"/>
</linearGradient>
</defs>
</svg>
