<svg width="132" height="56" viewBox="0 0 132 56" fill="none" xmlns="http://www.w3.org/2000/svg">
<path d="M11.4449 0.148438H39.7069C58.4461 0.148438 67.4312 11.8149 67.4312 24.1809C67.4312 44.7161 52.2235 54.9045 32.0281 54.9045H0L11.4449 0.148438ZM25.4959 41.1362H31.4089C40.0097 41.1362 43.4663 32.3467 43.4663 23.9466C43.4663 17.2588 41.7005 13.9133 35.4031 13.9133H31.1027L25.4959 41.1362Z" fill="white"/>
<path d="M132.005 23.6569C132.005 41.5115 120.4 55.0489 97.3369 55.0489C76.1107 55.0489 69.1328 43.6684 69.1328 31.7642C69.1328 16.2938 78.7542 0 103.141 0C124.071 0.00344551 132.005 11.9042 132.005 23.6569ZM91.9751 32.8081C91.9751 37.3459 93.2237 41.7355 98.2181 41.7355C106.812 41.7355 109.309 28.1222 109.309 20.9832C109.309 16.0733 107.547 12.7243 102.845 12.7243C94.8397 12.7243 91.9751 26.1893 91.9751 32.8081Z" fill="white"/>
</svg>
