<svg width="132" height="72" viewBox="0 0 132 72" fill="none" xmlns="http://www.w3.org/2000/svg">
<path d="M11.4449 0.148438H39.7069C58.4461 0.148438 67.4312 11.8149 67.4312 24.1809C67.4312 44.7161 52.2235 54.9045 32.0281 54.9045H0L11.4449 0.148438ZM25.4959 41.1362H31.4089C40.0097 41.1362 43.4663 32.3467 43.4663 23.9466C43.4663 17.2588 41.7005 13.9133 35.4031 13.9133H31.1027L25.4959 41.1362Z" fill="white"/>
<path d="M132.005 23.6569C132.005 41.5115 120.4 55.0489 97.3369 55.0489C76.1107 55.0489 69.1328 43.6684 69.1328 31.7642C69.1328 16.2938 78.7542 0 103.141 0C124.071 0.00344551 132.005 11.9042 132.005 23.6569ZM91.9751 32.8081C91.9751 37.3459 93.2237 41.7355 98.2181 41.7355C106.812 41.7355 109.309 28.1222 109.309 20.9832C109.309 16.0733 107.547 12.7243 102.845 12.7243C94.8397 12.7243 91.9751 26.1893 91.9751 32.8081Z" fill="white"/>
<path d="M6.87558 63.5053C7.46073 63.7879 7.9098 64.1875 8.21939 64.7078C8.52898 65.228 8.68547 65.8482 8.68547 66.5614C8.68547 66.8818 8.65826 67.1919 8.60042 67.4951C8.45073 68.3771 8.12754 69.1488 7.63424 69.8069C7.14094 70.4649 6.51496 70.9783 5.7631 71.3366C5.00784 71.6984 4.17094 71.8775 3.24898 71.8775H0.210938L1.75547 63.0781H4.79351C5.5964 63.085 6.29042 63.2228 6.87558 63.5053ZM5.69506 69.6622C6.28021 69.1419 6.65785 68.4184 6.82114 67.4951C6.86197 67.216 6.88578 66.9782 6.88578 66.775C6.88578 66.0687 6.67826 65.5243 6.27001 65.135C5.85836 64.7491 5.2596 64.5562 4.47032 64.5562H3.25238L2.23176 70.4443H3.4497C4.36145 70.4443 5.10991 70.1859 5.69506 69.6622Z" fill="white"/>
<path d="M10.6598 71.635C10.2074 71.3903 9.85695 71.0458 9.6086 70.6014C9.36025 70.1569 9.23438 69.6436 9.23438 69.0647C9.23438 68.2758 9.41809 67.5557 9.78891 66.9011C10.1563 66.2499 10.6632 65.7365 11.3062 65.3576C11.9492 64.982 12.6637 64.7891 13.4529 64.7891C14.0415 64.7891 14.5654 64.9131 15.0281 65.1612C15.4874 65.4092 15.8446 65.7572 16.0997 66.2017C16.3515 66.6496 16.4774 67.1595 16.4774 67.7383C16.4774 68.5376 16.2903 69.2611 15.916 69.9054C15.5452 70.5531 15.0315 71.063 14.3783 71.4351C13.7251 71.8107 13.0073 71.9967 12.218 71.9967C11.6328 72.0002 11.1123 71.8796 10.6598 71.635ZM13.5924 70.1225C13.9326 69.8779 14.198 69.554 14.3885 69.1509C14.579 68.7478 14.6743 68.324 14.6743 67.8795C14.6743 67.3765 14.5348 66.9872 14.2558 66.715C13.9768 66.4428 13.6264 66.305 13.2046 66.305C12.7827 66.305 12.4051 66.4256 12.0785 66.6702C11.7519 66.9148 11.4933 67.2387 11.313 67.6487C11.1293 68.0552 11.0409 68.4859 11.0409 68.9407C11.0409 69.4368 11.1702 69.8193 11.4321 70.088C11.6941 70.3567 12.0343 70.4911 12.4595 70.4911C12.8746 70.4877 13.2522 70.3671 13.5924 70.1225Z" fill="white"/>
<path d="M23.8176 65.387C24.2293 65.7763 24.4334 66.3345 24.4334 67.058C24.4334 67.3267 24.413 67.5713 24.3687 67.7884L23.6475 71.8849H21.9193L22.5895 68.0296C22.6133 67.878 22.6269 67.7298 22.6269 67.5886C22.6269 67.1682 22.518 66.8513 22.2969 66.6308C22.0758 66.4137 21.7628 66.3035 21.3579 66.3035C20.8952 66.3035 20.4972 66.4447 20.1706 66.7272C19.844 67.0097 19.6263 67.4129 19.5174 67.9434L18.8336 71.8883H17.0781L18.2995 64.9046H20.0549L19.9052 65.7625C20.1876 65.4697 20.5244 65.2354 20.9123 65.0631C21.3001 64.8909 21.7083 64.8047 22.1302 64.8047C22.8446 64.8013 23.406 64.9977 23.8176 65.387Z" fill="white"/>
<path d="M27.3862 63.0859H29.2165L27.3249 66.2625H26.1172L27.3862 63.0859Z" fill="white"/>
<path d="M31.1454 69.7327C31.1352 69.7844 31.1318 69.8499 31.1318 69.936C31.1318 70.1048 31.1795 70.2254 31.2747 70.2943C31.37 70.3667 31.5299 70.4011 31.7544 70.4011H32.5743L32.3124 71.8895H31.2033C29.9581 71.8895 29.3356 71.3658 29.3356 70.315C29.3356 70.1117 29.3526 69.9153 29.3866 69.7224L29.9717 66.3563H29.1484L29.3968 64.9058H30.2303L30.5297 63.1797H32.2851L31.9858 64.9058H33.5167L33.2683 66.3563H31.7238L31.1454 69.7327Z" fill="white"/>
<path d="M43.5008 63.0859L42.4292 69.2634C42.2795 70.1213 41.9189 70.7863 41.3473 71.2617C40.7758 71.7372 40.0784 71.9749 39.2585 71.9749C38.527 71.9749 37.9521 71.7889 37.5268 71.4133C37.105 71.0412 36.8906 70.5107 36.8906 69.8319C36.8906 69.6459 36.911 69.4392 36.9553 69.2014H38.7107C38.6937 69.2876 38.6869 69.3978 38.6869 69.5425C38.6869 70.1144 38.9625 70.4004 39.5102 70.4004C39.8266 70.4004 40.0818 70.3005 40.2825 70.0972C40.4832 69.8939 40.6159 69.6183 40.6805 69.2669L41.7522 63.0894H43.5008V63.0859Z" fill="white"/>
<path d="M51.72 64.8984L50.4987 71.8822H48.7569L48.9065 71.0001C48.6412 71.3033 48.3112 71.5411 47.9234 71.7133C47.5321 71.8856 47.1205 71.9717 46.6918 71.9717C45.9774 71.9717 45.416 71.7754 44.9976 71.386C44.5825 70.9967 44.375 70.4385 44.375 69.715C44.375 69.4463 44.3954 69.2086 44.4362 68.995L45.1473 64.8984H46.8891L46.2155 68.7434C46.1917 68.895 46.1781 69.0397 46.1781 69.1844C46.1781 69.5944 46.2904 69.9149 46.5149 70.1354C46.7394 70.3593 47.0524 70.4696 47.4607 70.4696C47.9336 70.4696 48.335 70.3214 48.6684 70.0217C49.0018 69.7219 49.2127 69.2981 49.3046 68.7434L49.9782 64.8984H51.72Z" fill="white"/>
<path d="M53.5421 71.7418C53.1305 71.5695 52.8073 71.3283 52.5726 71.0217C52.3378 70.7151 52.2188 70.3636 52.2188 69.9674C52.2188 69.9089 52.2289 69.8124 52.2426 69.678H53.9368C53.913 69.9743 54.0014 70.2086 54.1987 70.3912C54.3961 70.5704 54.6784 70.6634 55.0459 70.6634C55.3793 70.6634 55.6514 70.6014 55.8726 70.4808C56.0937 70.3602 56.2026 70.181 56.2026 69.9433C56.2026 69.7331 56.1005 69.5678 55.8964 69.4403C55.6923 69.3128 55.3725 69.1715 54.9336 69.0096C54.4913 68.8511 54.1273 68.6961 53.8381 68.5445C53.5489 68.3929 53.3006 68.1827 53.0931 67.914C52.8855 67.6453 52.7801 67.3042 52.7801 66.8942C52.7801 66.4842 52.8992 66.1155 53.1339 65.7986C53.3686 65.4781 53.702 65.2301 54.1239 65.0544C54.5458 64.8786 55.0322 64.7891 55.58 64.7891C56.1039 64.7891 56.5632 64.8786 56.9612 65.0544C57.3593 65.2301 57.6688 65.4781 57.89 65.7917C58.1077 66.1052 58.22 66.4669 58.22 66.8701C58.22 66.97 58.2166 67.0458 58.2098 67.0974H56.5904C56.6142 66.8046 56.5326 66.5703 56.342 66.3912C56.1515 66.2154 55.8726 66.1259 55.5085 66.1259C55.2092 66.1259 54.9642 66.1913 54.7737 66.3222C54.5832 66.4532 54.4879 66.6289 54.4879 66.8459C54.4879 67.0664 54.5968 67.2421 54.8111 67.3834C55.0254 67.5212 55.3588 67.6763 55.8079 67.8416C56.257 68.0173 56.6142 68.1793 56.883 68.3274C57.1517 68.4721 57.3865 68.6754 57.5872 68.9304C57.7879 69.1853 57.8866 69.5092 57.8866 69.8951C57.8866 70.3257 57.7573 70.6978 57.5022 71.0183C57.2436 71.3387 56.8932 71.5798 56.4441 71.7487C55.995 71.9175 55.4881 72.0002 54.9268 72.0002C54.4131 72.0002 53.9538 71.914 53.5421 71.7418Z" fill="white"/>
<path d="M61.4189 69.7327C61.4087 69.7844 61.4053 69.8499 61.4053 69.936C61.4053 70.1048 61.4529 70.2254 61.5482 70.2943C61.6434 70.3667 61.8033 70.4011 62.0279 70.4011H62.8478L62.5858 71.8895H61.4767C60.2316 71.8895 59.609 71.3658 59.609 70.315C59.609 70.1117 59.626 69.9153 59.66 69.7224L60.2452 66.3563H59.4219L59.6702 64.9058H60.5037L60.8031 63.1797H62.5586L62.2592 64.9058H63.7901L63.5418 66.3563H61.9972L61.4189 69.7327Z" fill="white"/>
<path d="M73.8287 63.5053C74.4139 63.7879 74.8629 64.1875 75.1725 64.7078C75.4821 65.228 75.6386 65.8482 75.6386 66.5614C75.6386 66.8818 75.6114 67.1919 75.5535 67.4951C75.4038 68.3771 75.0807 69.1488 74.5874 69.8069C74.0941 70.4649 73.4681 70.9783 72.7162 71.3366C71.961 71.6984 71.1241 71.8775 70.2021 71.8775H67.1641L68.7086 63.0781H71.7466C72.5495 63.085 73.2435 63.2228 73.8287 63.5053ZM72.6448 69.6622C73.2299 69.1419 73.6076 68.4184 73.7709 67.4951C73.8117 67.216 73.8355 66.9782 73.8355 66.775C73.8355 66.0687 73.628 65.5243 73.2197 65.135C72.8081 64.7491 72.2093 64.5562 71.42 64.5562H70.2021L69.1815 70.4443H70.3994C71.3112 70.4443 72.0596 70.1859 72.6448 69.6622Z" fill="white"/>
<path d="M79.8963 65.1517C80.2943 64.914 80.7263 64.7969 81.189 64.7969L80.8658 66.6505H80.4066C79.8928 66.6505 79.4778 66.7642 79.1682 66.9916C78.8552 67.219 78.6307 67.6048 78.4878 68.1526L77.8414 71.8839H76.0859L77.3073 64.9002H79.0627L78.8518 66.1337C79.1478 65.7133 79.4982 65.386 79.8963 65.1517Z" fill="white"/>
<path d="M87.4639 65.5264C87.9776 66.0191 88.2362 66.6806 88.2362 67.5109C88.2362 67.7797 88.2158 68.0208 88.1716 68.231C88.1205 68.4825 88.0695 68.703 88.0117 68.8856H82.9698C82.9596 68.9442 82.9562 69.0303 82.9562 69.1371C82.9562 69.5747 83.0821 69.9158 83.3372 70.1638C83.589 70.4119 83.9224 70.5359 84.3374 70.5359C84.6844 70.5359 84.9872 70.4601 85.239 70.3051C85.4907 70.1501 85.6983 69.9468 85.8547 69.6918H87.7327C87.4265 70.3637 86.9502 70.9184 86.3072 71.349C85.6642 71.7831 84.9362 71.9968 84.1231 71.9968C83.2454 71.9968 82.5377 71.7452 82.007 71.2422C81.4763 70.7392 81.2109 70.0536 81.2109 69.1888C81.2109 68.9373 81.2348 68.672 81.2858 68.3929C81.4117 67.6694 81.6668 67.0355 82.0512 66.4911C82.4357 65.9433 82.9154 65.523 83.4869 65.2301C84.0585 64.9372 84.6879 64.7891 85.3649 64.7891C86.2528 64.7857 86.9502 65.0337 87.4639 65.5264ZM86.4705 67.5213C86.4705 67.1181 86.3412 66.8012 86.0827 66.5772C85.8241 66.3498 85.4907 66.2361 85.0757 66.2361C84.6334 66.2361 84.2422 66.3774 83.8918 66.6599C83.5414 66.9424 83.2964 67.3249 83.1569 67.8141H86.4433C86.4603 67.6763 86.4705 67.5798 86.4705 67.5213Z" fill="white"/>
<path d="M89.7193 66.4911C90.0868 65.9433 90.5392 65.5229 91.07 65.2301C91.6007 64.9372 92.162 64.7891 92.7506 64.7891C93.2643 64.7891 93.6998 64.8924 94.0502 65.106C94.404 65.3162 94.6625 65.5815 94.8292 65.9019L95.0027 64.9062H96.7582L95.5403 71.8899H93.7848L93.9719 70.8701C93.6998 71.1974 93.3425 71.4696 92.9071 71.6832C92.4716 71.8968 91.9953 72.0036 91.4816 72.0036C90.9747 72.0036 90.5256 71.8899 90.1378 71.6556C89.7466 71.4248 89.4438 71.0975 89.2295 70.6737C89.0117 70.2499 88.9062 69.7573 88.9062 69.1922C88.9062 68.9304 88.9301 68.6582 88.9811 68.3722C89.1002 67.6625 89.3485 67.0389 89.7193 66.4911ZM94.4414 67.9174C94.4414 67.4213 94.2985 67.0354 94.0127 66.7564C93.727 66.4773 93.3664 66.3395 92.9377 66.3395C92.6145 66.3395 92.3015 66.4187 91.9987 66.5772C91.6959 66.7357 91.4306 66.97 91.2094 67.2766C90.9849 67.5832 90.8352 67.9484 90.7638 68.3653C90.74 68.5238 90.7264 68.6754 90.7264 68.8201C90.7264 69.3231 90.8692 69.7194 91.1516 70.0122C91.434 70.3016 91.7912 70.4463 92.2233 70.4463C92.5465 70.4463 92.8628 70.3636 93.169 70.2017C93.4752 70.0363 93.7406 69.802 93.9583 69.4885C94.1794 69.1784 94.3257 68.8098 94.4006 68.3929C94.4244 68.1758 94.4414 68.0174 94.4414 67.9174Z" fill="white"/>
<path d="M108.775 65.3895C109.2 65.7822 109.411 66.3438 109.411 67.0639C109.411 67.3327 109.391 67.5738 109.35 67.784L108.629 71.8805H106.901L107.571 68.0252C107.595 67.8736 107.608 67.7254 107.608 67.5842C107.608 67.1811 107.499 66.871 107.278 66.6574C107.061 66.4437 106.744 66.3369 106.339 66.3369C105.86 66.3369 105.451 66.4817 105.121 66.7711C104.788 67.0605 104.58 67.4774 104.499 68.0252V68.0114L103.815 71.8805H102.087L102.757 68.0252C102.781 67.8736 102.794 67.7289 102.794 67.5945C102.794 67.1845 102.682 66.871 102.458 66.6539C102.233 66.4403 101.92 66.3335 101.512 66.3335C101.056 66.3335 100.665 66.4713 100.335 66.7435C100.008 67.0157 99.7937 67.405 99.6951 67.908L98.9977 71.8805H97.2422L98.4635 64.8968H100.219L100.069 65.7271C100.345 65.4412 100.671 65.2138 101.053 65.0484C101.434 64.8796 101.838 64.7969 102.26 64.7969C102.801 64.7969 103.26 64.914 103.641 65.1449C104.023 65.3757 104.295 65.7064 104.451 66.1337C104.74 65.7306 105.121 65.4067 105.591 65.1621C106.06 64.9175 106.547 64.7969 107.054 64.7969C107.775 64.7969 108.353 64.9933 108.775 65.3895Z" fill="white"/>
<path d="M110.381 71.7323C110.214 71.5738 110.133 71.3705 110.133 71.1294C110.133 70.7917 110.259 70.5058 110.514 70.2646C110.766 70.0269 111.065 69.9062 111.405 69.9062C111.677 69.9062 111.898 69.9821 112.058 70.1371C112.218 70.2921 112.3 70.4954 112.3 70.7504C112.3 71.088 112.174 71.374 111.926 71.6151C111.677 71.8563 111.381 71.9735 111.041 71.9735C110.769 71.9735 110.548 71.8942 110.381 71.7323Z" fill="white"/>
<path d="M120.188 63.5053C120.773 63.7879 121.222 64.1875 121.532 64.7078C121.841 65.228 121.998 65.8482 121.998 66.5614C121.998 66.8818 121.971 67.1919 121.913 67.4951C121.763 68.3771 121.44 69.1488 120.947 69.8069C120.453 70.4649 119.827 70.9783 119.076 71.3366C118.32 71.6984 117.483 71.8775 116.561 71.8775H113.523L115.068 63.0781H118.106C118.909 63.085 119.603 63.2228 120.188 63.5053ZM119.004 69.6622C119.589 69.1419 119.967 68.4184 120.13 67.4951C120.171 67.216 120.191 66.9782 120.191 66.775C120.191 66.0687 119.984 65.5243 119.576 65.135C119.164 64.7491 118.565 64.5562 117.776 64.5562H116.558L115.537 70.4443H116.755C117.671 70.4443 118.419 70.1859 119.004 69.6622Z" fill="white"/>
<path d="M124.579 71.5019C124.018 71.185 123.586 70.7474 123.28 70.1893C122.973 69.6311 122.82 68.9903 122.82 68.2668C122.82 67.2573 123.041 66.3512 123.487 65.5449C123.929 64.7387 124.545 64.1048 125.331 63.6466C126.117 63.1883 126.998 62.9609 127.974 62.9609C128.713 62.9609 129.362 63.116 129.92 63.4261C130.482 63.7361 130.914 64.1737 131.22 64.7318C131.526 65.29 131.679 65.9274 131.679 66.6406C131.679 67.6673 131.458 68.5803 131.019 69.3899C130.58 70.1962 129.965 70.8266 129.175 71.2849C128.386 71.7431 127.498 71.9705 126.512 71.9705C125.783 71.974 125.137 71.8155 124.579 71.5019ZM128.413 69.8688C128.89 69.5484 129.26 69.1212 129.519 68.5768C129.781 68.0359 129.91 67.4468 129.91 66.8059C129.91 66.1169 129.72 65.576 129.339 65.1797C128.958 64.787 128.42 64.5871 127.733 64.5871C127.121 64.5871 126.573 64.7491 126.096 65.066C125.62 65.3865 125.249 65.8137 124.987 66.3512C124.725 66.8886 124.596 67.4778 124.596 68.1152C124.596 68.8042 124.787 69.3486 125.164 69.7483C125.542 70.1479 126.076 70.3478 126.763 70.3478C127.386 70.3478 127.934 70.1893 128.413 69.8688Z" fill="white"/>
</svg>
