<svg width="32" height="32" viewBox="0 0 32 32" fill="none" xmlns="http://www.w3.org/2000/svg">
<g clip-path="url(#clip0_23_40)">
<path d="M26 2C27.0609 2 28.0783 2.42143 28.8284 3.17157C29.5786 3.92172 30 4.93913 30 6V26C30 27.0609 29.5786 28.0783 28.8284 28.8284C28.0783 29.5786 27.0609 30 26 30H6C4.93913 30 3.92172 29.5786 3.17157 28.8284C2.42143 28.0783 2 27.0609 2 26V6C2 4.93913 2.42143 3.92172 3.17157 3.17157C3.92172 2.42143 4.93913 2 6 2H26ZM26 0H6C4.41012 0.00461698 2.88668 0.638241 1.76246 1.76246C0.638241 2.88668 0.00461698 4.41012 0 6L0 26C0.00461698 27.5899 0.638241 29.1133 1.76246 30.2375C2.88668 31.3618 4.41012 31.9954 6 32H26C27.5899 31.9954 29.1133 31.3618 30.2375 30.2375C31.3618 29.1133 31.9954 27.5899 32 26V6C31.9954 4.41012 31.3618 2.88668 30.2375 1.76246C29.1133 0.638241 27.5899 0.00461698 26 0Z" fill="white"/>
<path d="M16 25.25C14.1705 25.25 12.3821 24.7075 10.861 23.6911C9.33982 22.6747 8.15423 21.23 7.45412 19.5398C6.75401 17.8496 6.57083 15.9897 6.92774 14.1954C7.28465 12.4011 8.16563 10.7529 9.45927 9.45927C10.7529 8.16563 12.4011 7.28465 14.1954 6.92774C15.9897 6.57083 17.8496 6.75401 19.5398 7.45412C21.23 8.15423 22.6747 9.33982 23.6911 10.861C24.7075 12.3821 25.25 14.1705 25.25 16C25.2447 18.4516 24.2685 20.8013 22.5349 22.5349C20.8013 24.2685 18.4516 25.2447 16 25.25ZM23.81 17.2625C22.2089 16.8073 20.5297 16.6957 18.8825 16.935C19.5449 18.7676 20.0526 20.6526 20.4 22.57C21.2953 21.9592 22.0586 21.1746 22.6444 20.2628C23.2302 19.351 23.6266 18.3307 23.81 17.2625ZM19.0825 23.2775C18.7078 21.224 18.1412 19.2101 17.39 17.2625H17.34C12.9175 18.83 11.3 21.915 11.1475 22.1925C12.5354 23.274 14.2406 23.8688 16 23.885C17.0583 23.8961 18.1075 23.6893 19.0825 23.2775ZM10.1375 21.3075C10.29 21.03 12.4875 17.415 16.5575 16.1C16.6599 16.0514 16.7717 16.0258 16.885 16.025C16.6825 15.57 16.48 15.115 16.2275 14.66C13.5848 15.4307 10.8426 15.8056 8.09 15.7725V16.0225C8.09735 17.9757 8.82661 19.8571 10.1375 21.305V21.3075ZM8.2675 14.4075C10.7307 14.3827 13.1825 14.0689 15.5725 13.4725C14.6883 11.9032 13.7177 10.3842 12.665 8.9225C11.5474 9.41928 10.5649 10.1765 9.79985 11.1307C9.03479 12.085 8.50936 13.2086 8.2675 14.4075ZM14.155 8.3675C15.227 9.84373 16.2144 11.3795 17.1125 12.9675C19.8925 11.905 21.1125 10.34 21.2575 10.1375C19.8221 8.86391 17.9689 8.16196 16.05 8.165C15.4112 8.11265 14.7683 8.18136 14.155 8.3675ZM22.115 11.02C21.9375 11.2225 20.65 12.94 17.7175 14.155C17.895 14.535 18.0975 14.8875 18.2475 15.2925C18.2975 15.42 18.375 15.57 18.425 15.6975C20.2607 15.5101 22.1139 15.5944 23.925 15.9475C23.8873 14.1493 23.2503 12.4151 22.115 11.02Z" fill="white"/>
</g>
<defs>
<clipPath id="clip0_23_40">
<rect width="32" height="32" fill="white"/>
</clipPath>
</defs>
</svg>
